<svg xmlns="http://www.w3.org/2000/svg" xmlns:xlink="http://www.w3.org/1999/xlink" version="1.1" id="Layer_1" x="0px" y="0px" width="100%" viewBox="0 0 320 320" enable-background="new 0 0 320 320" xml:space="preserve">
<path fill="#AAAAAA" opacity="1.000000" stroke="none" d=" M49.185242,91.000229   C81.143341,91.000237 112.651398,90.313828 144.096848,91.415184   C153.630554,91.749092 164.186829,95.248421 169.531372,105.120995   C171.600204,108.942574 172.500870,113.677551 172.852127,118.082664   C173.390640,124.835892 172.993561,131.663712 172.993561,138.727051   C159.580521,138.727051 146.526031,138.727051 133.153229,138.727051   C133.153229,134.294876 133.153229,130.016541 133.153229,125.370010   C108.455437,125.370010 84.069725,125.370010 59.341080,125.370010   C59.341080,147.276505 59.341080,169.327972 59.341080,191.690704   C83.674232,191.690704 108.058098,191.690704 133.000290,191.690704   C133.000290,188.893295 132.987091,186.116791 133.003204,183.340469   C133.031754,178.420044 135.384857,176.017075 140.248184,176.006210   C149.410156,175.985748 158.576660,176.168884 167.732300,175.927231   C172.129028,175.811172 173.727463,178.260284 173.920059,181.814850   C174.217056,187.295959 174.244736,192.818329 173.949081,198.299591   C173.224899,211.726059 163.418686,220.653275 150.774246,223.298767   C136.717865,226.239655 122.798073,224.530975 108.843750,224.867920   C87.866638,225.374420 66.867432,225.094299 45.879642,224.913803   C42.039310,224.880768 38.180790,223.861740 34.378761,223.067551   C23.714258,220.839920 18.311111,210.790436 18.162819,201.384949   C17.713812,172.906494 17.986151,144.416412 18.045753,115.931000   C18.048502,114.617752 18.604736,113.264030 19.088474,112.000069   C22.620897,102.770103 28.531454,96.153023 38.638603,93.967407   C42.050449,93.229607 45.356663,92.003288 49.185242,91.000229  z"/>
<path fill="#AAAAAA" opacity="1.000000" stroke="none" d=" M264.715698,201.994522   C273.119934,201.660248 281.045135,201.159363 288.975983,201.041260   C299.998169,200.877121 300.000000,201.000000 300.000000,212.072189   C300.000000,216.204605 300.000000,220.337006 300.000000,224.729675   C261.579468,224.729675 223.529526,224.729675 184.661560,224.729675   C185.116745,217.998993 185.755539,211.475220 185.959991,204.937851   C186.421387,190.183151 186.557953,175.418198 187.031113,160.663971   C187.571747,143.804993 188.271210,126.950272 189.032883,110.099640   C189.314178,103.876823 189.968811,97.670883 190.470978,91.228607   C228.384109,91.228607 266.316528,91.228607 305.000000,91.228607   C305.000000,99.054649 305.000000,106.970917 305.000000,114.887192   C305.000000,126.000000 305.000000,126.000000 294.015991,126.000000   C275.214142,126.000000 256.412262,126.000000 237.302475,126.000000   C236.770157,132.278885 236.261276,138.281296 235.708038,144.806885   C254.586670,144.806885 272.986053,144.806885 292.385529,144.806885   C291.924377,151.837402 291.423920,158.348190 291.098419,164.867706   C290.915833,168.524521 290.901550,172.200317 291.037476,175.859161   C291.146545,178.794998 290.149384,180.011917 287.038940,180.053665   C270.945770,180.269653 254.855133,180.669815 238.763397,180.995102   C236.973007,181.031311 235.181290,181.000000 233.314072,181.000000   C232.797012,188.146622 232.315018,194.808578 231.794815,201.998672   C243.009857,201.998672 253.624512,201.998672 264.715698,201.994522  z"/>
</svg>